<svg xmlns="http://www.w3.org/2000/svg" xmlns:xlink="http://www.w3.org/1999/xlink" width="960" height="817" viewBox="0 0 960 817"><defs><style>.a{fill:#fcfcfc;}.b,.i{fill:#9ebfc8;}.b,.c{opacity:0.22;}.d{fill:#3f3d56;}.e,.l{fill:#083747;}.f,.h,.i,.l,.p,.q{opacity:0.1;}.g{fill:#eb6b16;}.h{fill:#151616;}.j,.q{fill:none;stroke-miterlimit:10;}.j{stroke:#3f3d56;stroke-width:4px;}.k{fill:#fdf0e7;}.m{fill:url(#a);}.n{fill:#be6f72;}.o{fill:#ff6f61;}.q{stroke:#000;}.r{fill:url(#b);}.s{fill:#2f2e41;}.t{fill:#fbbebe;}.u{fill:#e8e8f0;}.v{fill:#f86d70;}</style><linearGradient id="a" x1="0.5" y1="1" x2="0.5" gradientUnits="objectBoundingBox"><stop offset="0" stop-color="gray" stop-opacity="0.251"></stop><stop offset="0.54" stop-color="gray" stop-opacity="0.122"></stop><stop offset="1" stop-color="gray" stop-opacity="0.102"></stop></linearGradient><linearGradient id="b" x1="0.5" y1="1" x2="0.5" y2="-0.001" xlink:href="#a"></linearGradient></defs><g transform="translate(0 -13666)"><rect class="a" width="960" height="817" transform="translate(0 13666)"></rect><g transform="translate(-75.863 13762.391)"><path class="b" d="M880.649,248.047l-10,6.334,6.11-11.039a9.879,9.879,0,0,0-6.049-2.149h-.163a11.56,11.56,0,0,1-2.037-.153l-3.442,2.149,1.456-2.648a12.006,12.006,0,0,1-5.937-4.5l-6.11,3.849,3.829-6.966c-3.544-4.257-8.33-6.864-13.585-6.864-6.314,0-11.925,3.748-15.561,9.593a11.62,11.62,0,0,1-10.276,5.54h-.336c-6.966,0-12.608,7.892-12.608,17.628s5.642,17.638,12.608,17.638a9.562,9.562,0,0,0,4.389-1.1,18.188,18.188,0,0,1,15.276-.305,15.836,15.836,0,0,0,12.974,0,18.25,18.25,0,0,1,15.133.3,9.471,9.471,0,0,0,4.338,1.079c6.966,0,12.608-7.9,12.608-17.638a22.333,22.333,0,0,0-2.617-10.744Z" transform="translate(-40.349 -162.193)"></path><g class="c" transform="translate(430.755 39.641)"><ellipse class="d" cx="11.589" cy="15.174" rx="11.589" ry="15.174" transform="translate(43.679 313.234)"></ellipse><path class="d" d="M540.806,461.441a18.331,18.331,0,0,0,2.424-9.277c0-8.381-5.194-15.174-11.6-15.174S520,443.8,520,452.184a18.331,18.331,0,0,0,2.424,9.278,18.952,18.952,0,0,0,0,18.545,18.952,18.952,0,0,0,0,18.545A18.269,18.269,0,0,0,520,507.829C520,516.2,525.194,523,531.589,523s11.6-6.8,11.6-15.174a18.27,18.27,0,0,0-2.424-9.277,18.952,18.952,0,0,0,0-18.545,18.952,18.952,0,0,0,0-18.545Z" transform="translate(-476.361 -197.956)"></path><ellipse class="d" cx="11.589" cy="15.174" rx="11.589" ry="15.174" transform="translate(43.679 220.51)"></ellipse><ellipse class="d" cx="11.589" cy="15.174" rx="11.589" ry="15.174" transform="translate(43.679 201.965)"></ellipse><path class="e" d="M489.035,292.489a54.05,54.05,0,0,1-4.318-6.355l30.45-5-32.935.244a55.625,55.625,0,0,1-1.018-43.994L525.4,260.308l-40.735-29.961a55.533,55.533,0,1,1,91.655,62.122,55.544,55.544,0,0,1,6.334,10.123l-39.544,20.592,42.151-14.145a55.533,55.533,0,0,1-8.952,52.141,55.522,55.522,0,1,1-87.276,0,55.522,55.522,0,0,1,0-68.66Z" transform="translate(-477.149 -202.271)"></path><path class="f" d="M588.195,324.585a55.268,55.268,0,0,1-11.885,34.33,55.522,55.522,0,1,1-87.276,0C481.59,349.464,588.195,318.352,588.195,324.585Z" transform="translate(-477.149 -200.037)"></path></g><g class="c" transform="translate(580.021 90.389)"><ellipse class="d" cx="8.666" cy="11.335" rx="8.666" ry="11.335" transform="translate(32.639 233.879)"></ellipse><path class="d" d="M671.28,445.59a13.677,13.677,0,0,0,1.8-6.925c0-6.263-3.88-11.345-8.656-11.345s-8.667,5.092-8.667,11.345a13.576,13.576,0,0,0,1.813,6.925,14.156,14.156,0,0,0,0,13.86,14.156,14.156,0,0,0,0,13.86,13.575,13.575,0,0,0-1.813,6.925c0,6.263,3.88,11.345,8.666,11.345s8.656-5.092,8.656-11.345a13.677,13.677,0,0,0-1.8-6.925,14.257,14.257,0,0,0,0-13.86,14.258,14.258,0,0,0,0-13.86Z" transform="translate(-623.131 -248.882)"></path><ellipse class="d" cx="8.666" cy="11.335" rx="8.666" ry="11.335" transform="translate(32.639 164.588)"></ellipse><ellipse class="d" cx="8.666" cy="11.335" rx="8.666" ry="11.335" transform="translate(32.639 150.728)"></ellipse><path class="g" d="M632.6,319.324a39.713,39.713,0,0,1-3.228-4.746l22.761-3.737-24.614.183a41.591,41.591,0,0,1-.794-32.884L659.75,295.28l-30.46-22.4a41.5,41.5,0,1,1,68.527,46.438,41.964,41.964,0,0,1,4.735,7.567L673.02,342.227l31.5-10.571a41.51,41.51,0,0,1-6.691,38.963,41.489,41.489,0,1,1-65.177,0,41.489,41.489,0,0,1,0-51.306Z" transform="translate(-623.72 -252.103)"></path><path class="f" d="M706.7,343.311a41.316,41.316,0,0,1-8.88,25.653,41.489,41.489,0,1,1-65.177,0C627.06,361.907,706.7,338.657,706.7,343.311Z" transform="translate(-623.72 -250.437)"></path></g><g class="c" transform="translate(901.867 84.279)"><ellipse class="d" cx="8.666" cy="11.335" rx="8.666" ry="11.335" transform="translate(33.05 233.879)"></ellipse><path class="d" d="M974.033,439.59a13.678,13.678,0,0,1-1.8-6.925c0-6.263,3.88-11.345,8.656-11.345s8.666,5.092,8.666,11.345a13.574,13.574,0,0,1-1.813,6.925,14.155,14.155,0,0,1,0,13.86,14.155,14.155,0,0,1,0,13.86,13.574,13.574,0,0,1,1.813,6.925c0,6.263-3.88,11.345-8.667,11.345s-8.656-5.092-8.656-11.345a13.677,13.677,0,0,1,1.8-6.925,14.258,14.258,0,0,1,0-13.86,14.258,14.258,0,0,1,0-13.86Z" transform="translate(-939.159 -242.882)"></path><ellipse class="d" cx="8.666" cy="11.335" rx="8.666" ry="11.335" transform="translate(33.05 164.588)"></ellipse><ellipse class="d" cx="8.666" cy="11.335" rx="8.666" ry="11.335" transform="translate(33.05 150.728)"></ellipse><path class="e" d="M1013.9,313.324a39.7,39.7,0,0,0,3.228-4.746l-22.761-3.737,24.614.183a41.591,41.591,0,0,0,.794-32.884L986.748,289.28l30.46-22.4a41.5,41.5,0,1,0-68.527,46.438,41.959,41.959,0,0,0-4.735,7.567l29.533,15.347-31.438-10.561a41.51,41.51,0,0,0,6.691,38.963,41.489,41.489,0,1,0,65.177,0,41.489,41.489,0,0,0,0-51.306Z" transform="translate(-939.757 -246.103)"></path><path class="f" d="M939.8,337.311a41.317,41.317,0,0,0,8.88,25.653,41.489,41.489,0,1,0,65.177,0C1019.438,355.907,939.8,332.657,939.8,337.311Z" transform="translate(-939.756 -244.437)"></path></g><g class="c" transform="translate(131.076 84.279)"><ellipse class="d" cx="8.666" cy="11.335" rx="8.666" ry="11.335" transform="translate(32.639 233.88)"></ellipse><path class="d" d="M230.45,439.59a13.677,13.677,0,0,0,1.8-6.925c0-6.263-3.87-11.345-8.656-11.345s-8.666,5.092-8.666,11.345a13.676,13.676,0,0,0,1.813,6.925,14.156,14.156,0,0,0,0,13.86,14.155,14.155,0,0,0,0,13.86,13.677,13.677,0,0,0-1.813,6.925c0,6.263,3.88,11.345,8.666,11.345s8.656-5.092,8.656-11.345a13.677,13.677,0,0,0-1.8-6.925,14.257,14.257,0,0,0,0-13.86,14.257,14.257,0,0,0,0-13.86Z" transform="translate(-182.291 -242.881)"></path><ellipse class="d" cx="8.666" cy="11.335" rx="8.666" ry="11.335" transform="translate(32.639 164.589)"></ellipse><ellipse class="d" cx="8.666" cy="11.335" rx="8.666" ry="11.335" transform="translate(32.639 150.728)"></ellipse><path class="g" d="M191.76,313.324a40.947,40.947,0,0,1-3.228-4.746l22.761-3.737-24.614.183a41.591,41.591,0,0,1-.794-32.884l33.026,17.139-30.46-22.4a41.5,41.5,0,1,1,68.527,46.438,40.859,40.859,0,0,1,4.735,7.567L232.18,336.227l31.5-10.571a41.509,41.509,0,0,1-6.691,38.963,41.489,41.489,0,1,1-65.177,0,41.489,41.489,0,0,1,0-51.306Z" transform="translate(-182.88 -246.103)"></path><path class="f" d="M265.858,337.311a41.316,41.316,0,0,1-8.88,25.653,41.489,41.489,0,1,1-65.177,0C186.2,355.907,265.858,332.657,265.858,337.311Z" transform="translate(-182.88 -244.437)"></path></g><ellipse class="h" cx="435.604" cy="9.023" rx="435.604" ry="9.023" transform="translate(120.261 492.445)"></ellipse><ellipse class="h" cx="435.604" cy="9.023" rx="435.604" ry="9.023" transform="translate(120.261 566.533)"></ellipse><ellipse class="h" cx="435.604" cy="9.023" rx="435.604" ry="9.023" transform="translate(120.261 337.823)"></ellipse><ellipse class="h" cx="435.604" cy="9.023" rx="435.604" ry="9.023" transform="translate(120.261 415.129)"></ellipse><path class="i" d="M861.8,273.448A18.636,18.636,0,0,0,851,274.629a15.938,15.938,0,0,1-12.974,0,18.209,18.209,0,0,0-15.276.3,9.41,9.41,0,0,1-4.389,1.1c-6.192,0-11.335-6.232-12.4-14.451a12.1,12.1,0,0,0,3.055-3.33c3.625-5.846,9.237-9.6,15.551-9.6s11.854,3.707,15.479,9.491a11.9,11.9,0,0,0,10.276,5.642h.163C855.464,263.722,859.731,267.674,861.8,273.448Z" transform="translate(-40.349 -161.777)"></path><path class="j" d="M716.516,654.848c2.658-4.929-.356-10.958-3.819-15.347s-7.7-8.962-7.607-14.553c.132-8.035,8.666-12.791,15.479-17.048a75.666,75.666,0,0,0,13.9-11.2,20.5,20.5,0,0,0,4.267-5.723c1.416-3.137,1.375-6.721,1.283-10.184q-.438-17.2-1.7-34.381" transform="translate(-42.204 -156.303)"></path><path class="g" d="M750.9,546.066a12.536,12.536,0,0,0-6.263-10.276l-2.811,5.55.092-6.721a12.536,12.536,0,1,0,8.982,11.447Z" transform="translate(-41.822 -156.529)"></path><path class="g" d="M728.918,629.5a12.536,12.536,0,0,1-23.667-5.092,12.22,12.22,0,0,1,.815-5.092,12.546,12.546,0,0,1,23.423.132l-7.831,6.375,8.616-2.037A12.465,12.465,0,0,1,728.918,629.5Z" transform="translate(-42.201 -155.109)"></path><path class="g" d="M722.647,605.723a12.536,12.536,0,0,1-3.972-24.594l-.071,5.163,2.841-5.622h0a12.54,12.54,0,1,1,1.171,25.052Z" transform="translate(-42.122 -155.673)"></path><path class="g" d="M752.538,585.832a12.536,12.536,0,1,1,5.54-23.423l-2.21,6.11,4.511-4.461a12.536,12.536,0,0,1-7.882,21.763Z" transform="translate(-41.574 -156.039)"></path><path class="f" d="M749.212,549.282c-2.892.316-5.7,1.212-8.616,1.4s-6.11-.519-7.923-2.77a40.191,40.191,0,0,1-2.322-4.074,8.922,8.922,0,0,0-3.157-2.974,12.536,12.536,0,1,0,23.423,8.33C750.159,549.2,749.681,549.231,749.212,549.282Z" transform="translate(-41.822 -156.405)"></path><path class="f" d="M752.537,585.7a12.536,12.536,0,0,1-11.925-17.883,9.277,9.277,0,0,1,2.515,2.526,42.5,42.5,0,0,0,2.485,4.145c1.955,2.291,5.3,3.055,8.32,2.9s5.947-1.018,8.962-1.273c.418,0,.835-.061,1.263-.071a12.536,12.536,0,0,1-11.62,9.654Z" transform="translate(-41.573 -155.909)"></path><path class="f" d="M722.647,605.589A12.536,12.536,0,0,1,710.62,587.94a10.185,10.185,0,0,1,2.658,2.546A42,42,0,0,0,716,594.712c2.108,2.352,5.672,3.187,8.87,3.055s6.11-.825,9.165-1.018a12.557,12.557,0,0,1-11.385,8.84Z" transform="translate(-42.122 -155.539)"></path><path class="f" d="M728.918,629.354a12.536,12.536,0,0,1-23.667-5.092,12.22,12.22,0,0,1,.815-5.092,12.515,12.515,0,0,1,2.75,2.454c1.191,1.446,1.976,3.055,3.361,4.45,2.556,2.515,6.7,3.554,10.377,3.646a52.662,52.662,0,0,0,6.365-.367Z" transform="translate(-42.201 -154.965)"></path><path class="j" d="M512.945,500.477c-2.658-4.919.356-10.948,3.829-15.337s7.689-8.962,7.6-14.553c-.122-8.045-8.656-12.791-15.479-17.048A75.359,75.359,0,0,1,495,442.338a20.142,20.142,0,0,1-4.277-5.713c-1.405-3.147-1.365-6.721-1.283-10.184q.458-17.2,1.7-34.381" transform="translate(-46.169 -159.141)"></path><path class="g" d="M478.39,391.706a12.526,12.526,0,0,1,6.253-10.275l2.811,5.55-.081-6.721a12.853,12.853,0,0,1,4.124-.5,12.536,12.536,0,1,1-13.107,11.946Z" transform="translate(-46.372 -159.367)"></path><path class="g" d="M500.365,475.14a12.536,12.536,0,1,0-.6-10.092l7.831,6.375-8.616-2.037a12.466,12.466,0,0,0,1.385,5.754Z" transform="translate(-45.993 -157.949)"></path><path class="g" d="M506.636,451.363a12.536,12.536,0,0,0,3.982-24.594l.061,5.163-2.841-5.621h0a12.536,12.536,0,0,0-13.137,11.9,12.384,12.384,0,0,0,.54,4.277,12.526,12.526,0,0,0,11.4,8.87Z" transform="translate(-46.072 -158.511)"></path><path class="g" d="M476.756,431.452a12.536,12.536,0,1,0-5.55-23.423l2.22,6.11-4.562-4.369a12.434,12.434,0,0,0-4.074,8.656,12.127,12.127,0,0,0,.316,3.452,12.526,12.526,0,0,0,11.65,9.573Z" transform="translate(-46.622 -158.877)"></path><path class="f" d="M480.075,394.922c2.892.316,5.7,1.212,8.605,1.4s6.11-.519,7.933-2.77a40.111,40.111,0,0,0,2.312-4.074,8.952,8.952,0,0,1,3.167-2.974,12.536,12.536,0,1,1-23.423,8.32C479.128,394.83,479.6,394.871,480.075,394.922Z" transform="translate(-46.366 -159.243)"></path><path class="f" d="M476.75,431.323a12.547,12.547,0,0,0,11.925-17.883,9.32,9.32,0,0,0-2.526,2.526,42.48,42.48,0,0,1-2.485,4.145c-1.945,2.291-5.285,3.055-8.31,2.9s-5.947-1.018-8.962-1.273c-.418,0-.845-.061-1.263-.071a12.526,12.526,0,0,0,11.62,9.654Z" transform="translate(-46.615 -158.748)"></path><path class="f" d="M506.626,451.229a12.526,12.526,0,0,0,12.027-17.649A10.01,10.01,0,0,0,516,436.126a41.977,41.977,0,0,1-2.719,4.226c-2.118,2.352-5.672,3.188-8.88,3.055s-6.11-.825-9.165-1.018a12.526,12.526,0,0,0,11.385,8.84Z" transform="translate(-46.062 -158.377)"></path><path class="f" d="M500.34,474.994A12.536,12.536,0,0,0,523.2,464.81a12.037,12.037,0,0,0-2.75,2.454c-1.191,1.446-2.037,3.055-3.361,4.45-2.566,2.515-6.7,3.554-10.388,3.646a54.936,54.936,0,0,1-6.365-.367Z" transform="translate(-45.968 -157.803)"></path><path class="k" d="M101.8,0A101.8,101.8,0,1,1,0,101.8,101.8,101.8,0,0,1,101.8,0Z" transform="translate(690.057 140.032)"></path><path class="g" d="M876.267,427.9c-3.544-3.544-12.068-8.891-16.294-10.887-4.878-2.342-6.67-2.3-10.123.193-2.872,2.037-4.735,4-8.035,3.279s-9.838-5.652-16.162-11.956-11.233-12.8-11.935-16.152,1.232-5.173,3.289-8.045c2.485-3.452,2.556-5.245.193-10.123-2.037-4.226-7.322-12.73-10.9-16.294s-4.349-2.78-6.3-2.037a36.459,36.459,0,0,0-5.774,3.055c-3.544,2.373-5.53,4.348-6.925,7.322s-2.974,8.493,5.143,22.944a128,128,0,0,0,22.506,30.012h0a128.193,128.193,0,0,0,30.114,22.547c14.441,8.147,19.971,6.528,22.944,5.143s4.949-3.35,7.312-6.925a35.983,35.983,0,0,0,3.055-5.774C879.047,432.25,879.841,431.456,876.267,427.9Z" transform="translate(-40.713 -159.817)"></path><circle class="k" cx="101.798" cy="101.798" r="101.798" transform="translate(456.185 294.654)"></circle><path class="g" d="M661.039,522.444l-30.48,31.01a.55.55,0,0,0,0,.794l21.386,22.741a3.68,3.68,0,1,1-5.2,5.2l-21.274-22.659a.58.58,0,0,0-.815,0l-5.184,5.234a22.781,22.781,0,0,1-16.294,6.854,23.28,23.28,0,0,1-16.579-7.047l-4.98-5.092a.581.581,0,0,0-.815,0l-21.223,22.608a3.68,3.68,0,1,1-5.2-5.2l21.3-22.69a.611.611,0,0,0,0-.794l-30.48-31.01a.56.56,0,0,0-.957.4v62.05a9.084,9.084,0,0,0,9.053,9.053h99.669a9.084,9.084,0,0,0,9.053-9.054v-62a.56.56,0,0,0-.978-.4Z" transform="translate(-45.161 -156.747)"></path><path class="g" d="M603.081,564.435a15.418,15.418,0,0,0,11.121-4.583l44.391-45.186a8.86,8.86,0,0,0-5.6-2.037H553.251a8.8,8.8,0,0,0-5.6,2.037l44.4,45.186A15.357,15.357,0,0,0,603.081,564.435Z" transform="translate(-45.098 -156.924)"></path><circle class="k" cx="101.798" cy="101.798" r="101.798" transform="translate(214.593 218.631)"></circle><path class="g" d="M365.583,430.16,325,523.79l3.788,3.788,36.8-16.233,36.8,16.233,3.788-3.788Z" transform="translate(-49.192 -158.44)"></path><path class="l" d="M454.953,479.839C454.953,528.571,454.981,431.085,454.953,479.839Z" transform="translate(-50.299 -159.399)"></path><path class="m" d="M841.808,604.678q-1.385-3.381-2.841-6.742a20.009,20.009,0,0,0-3.473-6,6.354,6.354,0,0,0-2.037-1.528,8.687,8.687,0,0,0-2.658-.53,21.218,21.218,0,0,0-4.175-.112c-.54-.163-1.151-.377-1.752-.621a14.543,14.543,0,0,0,10.836-13.494c0-.2,0-.418,0-.621a14.512,14.512,0,0,0-14.451-14.573,14.258,14.258,0,0,0-7.587,2.169,13.616,13.616,0,0,0-15.276,7.363,16.834,16.834,0,0,0-5.194,12.526c0,.214,0,.438,0,.642.265,7.913,5.377,14.257,11.834,14.9a6.784,6.784,0,0,0-1.874,1.253c-1.976,1.9-2.3,4.929-2.515,7.679l-.153,2.037-3.422,1.222a.631.631,0,0,0-.153,1.11l3.269,2.332v.581a2.543,2.543,0,0,0,.061.662,4.674,4.674,0,0,0-1.263,1.8,8.329,8.329,0,0,0-.3,3.3l.122,2.841a22.309,22.309,0,0,0,.866,6.324c.428,1.263,2.281,4.308,3.615,4.328-1.232,5.6-1.558,17.414-1.558,17.414-.153.153.275.3,1.018.417.733,5.622,3.126,21.386,7.373,28.321a59.708,59.708,0,0,1,1.6,6.884s1.212,14.981,2.811,19.431c1.365,3.788,2.444,13.137,2.739,15.846a1.558,1.558,0,0,0-1.13,1.161c-.8,2.424-6.019,6.11-6.019,6.11a25.215,25.215,0,0,0-4.5,2.882c-1.64,1.477-1.578,2.811,5.7,1.976,14.054-1.619,16.457-6.11,16.457-6.11s-.224-.754-.56-1.731a18.8,18.8,0,0,0-1.843-4.349c-.2-.193-.407.132-.652.642a87.2,87.2,0,0,1-.957-19.665s.4-6.884-1.609-11.742a22.231,22.231,0,0,1,0-7.689c.8-3.238-3.208-19.034-3.208-19.034l-2.3-11.63a3.339,3.339,0,0,1,.642,1.354l.061.234.061.336a.632.632,0,0,0,.163.316c1.568,6.518,5.866,24.574,5.866,27.221,0,3.238,4.012,11.335,4.012,11.335s1.6,13.361,4.41,18.616c2.139,4,2.19,9.868,2.088,12.455h0s-.479,3.33-1.283,4.135a9.837,9.837,0,0,0-1.517,2.638l-.092.193s-1.2,2.434-.4,2.841a19.726,19.726,0,0,0,9.634,1.212s1.609-2.037,1.609-2.831a12.758,12.758,0,0,0-.183-1.446c-.3-1.914-.845-4.929-.855-4.959.336-1.3-1.018-4.929-1.018-4.929l-.407-11.335a52.324,52.324,0,0,0-2.811-22.68s-2.037-7.281-1.6-9.308-.8-23.484-.8-23.484l-.122-.305a23.194,23.194,0,0,1,.122-4.552c.4-4.858-1.2-14.98-1.609-15.378a13.342,13.342,0,0,1-.57-3.35c.092-.845.367-3.32.743-6.4a114.954,114.954,0,0,0,11.834-1.018,1.477,1.477,0,0,0,1.018-.407,1.426,1.426,0,0,0,.234-.825C846.35,616.247,844.119,610.32,841.808,604.678Zm-8.076,12.842c.417-2.9.866-5.713,1.314-7.8l.061.183a56.66,56.66,0,0,1,1.935,6.416A21.824,21.824,0,0,1,833.732,617.52Z" transform="translate(-40.584 -156.044)"></path><path class="n" d="M802.37,648.694s2.4,21.62,7.607,30.022a58.267,58.267,0,0,1,1.6,6.8s1.2,14.807,2.8,19.207,2.8,16.416,2.8,16.416,5.6,6.4,7.607,1.2a84.344,84.344,0,0,1-1.2-20.816s.4-6.8-1.6-11.61a21.712,21.712,0,0,1,0-7.6c.794-3.208-3.208-18.81-3.208-18.81l-3.2-15.612Z" transform="translate(-40.415 -154.437)"></path><path class="o" d="M827.545,725.04s-2.4,4.4-16.406,6c-7.271.825-7.322-.489-5.683-1.955a25.351,25.351,0,0,1,4.481-2.852s5.2-3.595,6-6,3.605-.4,3.605-.4c4,6,4.807-1.609,5.6-.8a18.059,18.059,0,0,1,1.843,4.287C827.32,724.286,827.545,725.04,827.545,725.04Z" transform="translate(-40.374 -153.13)"></path><path class="f" d="M827.545,724.961s-2.4,4.4-16.406,6c-7.271.825-7.322-.489-5.683-1.955,1.141.723,3.442,1.018,8.076-.845,6.67-2.729,11.508-4.308,13.453-4.919C827.32,724.207,827.545,724.961,827.545,724.961Z" transform="translate(-40.374 -153.052)"></path><path class="f" d="M823.395,701.528s.4-6.8-1.6-11.61a21.71,21.71,0,0,1,0-7.6c.794-3.208-3.208-18.81-3.208-18.81l-3.2-15.612-2.77.163,3.167,15.449s4,15.6,3.208,18.81a21.71,21.71,0,0,0,0,7.6c2.037,4.807,1.6,11.61,1.6,11.61a84.339,84.339,0,0,0,1.2,20.816,3.5,3.5,0,0,1-1.161,1.65c1.487.672,3.055.642,3.961-1.65A84.348,84.348,0,0,1,823.395,701.528Z" transform="translate(-40.227 -154.437)"></path><path class="d" d="M821.146,562.42a14.258,14.258,0,0,0-7.556,2.149,13.6,13.6,0,0,0-15.276,7.281,16.579,16.579,0,0,0-5.184,12.384c0,8.514,5.734,15.408,12.8,15.408,5.092,0,9.552-3.625,11.6-8.87a14.054,14.054,0,0,0,3.605.469,14.41,14.41,0,0,0,0-28.82Z" transform="translate(-40.585 -156.008)"></path><path class="n" d="M832.53,650.65l1.2,3.2s1.2,21.213.794,23.219,1.609,9.165,1.609,9.165a51.234,51.234,0,0,1,2.8,22.4l.4,11.2s1.6,4.4.8,5.2-6.833-.713-6.833-.713.8-8.4-2.037-13.606-4.4-18.412-4.4-18.412-4-8-4-11.2-6.406-29.217-6.406-29.217Z" transform="translate(-40.156 -154.386)"></path><path class="d" d="M801.581,650.715s.407-14.41,2.037-18.81a29.868,29.868,0,0,0,1.782-6.385s24.227,4.379,26.234,2.78c0,0,.4,5.6.8,6s2.037,10.408,1.6,15.215,0,4.8,0,4.8-16.416,2.4-16.814,0-1.6-2.393-1.6-2.393S800.786,651.468,801.581,650.715Z" transform="translate(-40.43 -154.848)"></path><g class="p" transform="translate(761.15 473.452)"><path d="M814.788,650.275s-10.123-.275-13.178-.825v.825c-.794.794,14.013,1.2,14.013,1.2a1.018,1.018,0,0,1,.55.224C815.634,650.275,814.788,650.275,814.788,650.275Z" transform="translate(-801.58 -627.86)"></path><path d="M832.127,634.248c-.407-.4-.8-6-.8-6a1.722,1.722,0,0,1-.682.244c.143,1.69.418,4.287.682,4.552s2.037,10.408,1.6,15.215,0,4.8,0,4.8-12.984,1.9-16.131.631a4.832,4.832,0,0,0,.122.57c.4,2.4,16.814,0,16.814,0s-.407,0,0-4.8S832.524,634.656,832.127,634.248Z" transform="translate(-801.3 -628.25)"></path><path d="M814.788,650.275s-10.123-.275-13.178-.825v.825c-.794.794,14.013,1.2,14.013,1.2a1.018,1.018,0,0,1,.55.224C815.634,650.275,814.788,650.275,814.788,650.275Z" transform="translate(-801.58 -627.86)"></path><path d="M832.127,634.248c-.407-.4-.8-6-.8-6a1.722,1.722,0,0,1-.682.244c.143,1.69.418,4.287.682,4.552s2.037,10.408,1.6,15.215,0,4.8,0,4.8-12.984,1.9-16.131.631a4.832,4.832,0,0,0,.122.57c.4,2.4,16.814,0,16.814,0s-.407,0,0-4.8S832.524,634.656,832.127,634.248Z" transform="translate(-801.3 -628.25)"></path></g><path class="n" d="M819.056,587.254a5.307,5.307,0,0,0,1.528,1.976,3.423,3.423,0,0,0,1.436.621c-.9.519-1.874.906-2.77,1.426a49.26,49.26,0,0,0-4.073,3.055,8.289,8.289,0,0,1-4.674,1.813,5.723,5.723,0,0,0,.652-5.693,5.317,5.317,0,0,1-.713-1.976c0-1.151,1.018-2.037,1.966-2.648.764-.519,1.548-1.018,2.342-1.517.621-.387,1.558-1.2,2.342-1.171s.876.723,1.018,1.436A11.291,11.291,0,0,0,819.056,587.254Z" transform="translate(-40.267 -155.628)"></path><path class="f" d="M819.056,587.254a5.307,5.307,0,0,0,1.528,1.976,3.423,3.423,0,0,0,1.436.621c-.9.519-1.874.906-2.77,1.426a49.26,49.26,0,0,0-4.073,3.055,8.289,8.289,0,0,1-4.674,1.813,5.723,5.723,0,0,0,.652-5.693,5.317,5.317,0,0,1-.713-1.976c0-1.151,1.018-2.037,1.966-2.648.764-.519,1.548-1.018,2.342-1.517.621-.387,1.558-1.2,2.342-1.171s.876.723,1.018,1.436A11.291,11.291,0,0,0,819.056,587.254Z" transform="translate(-40.267 -155.628)"></path><circle class="n" cx="9.206" cy="9.206" r="9.206" transform="translate(778.962 436.831)"></circle><path class="o" d="M841.087,729.812c0,.8-1.6,2.8-1.6,2.8a19.819,19.819,0,0,1-9.6-1.2c-.8-.4.4-2.8.4-2.8l.092-.193a9.715,9.715,0,0,1,1.517-2.607c.794-.794,1.273-4.073,1.273-4.073,2.485-4.074,6.894,1.762,6.894,1.762s.56,3.055.855,4.909A13.944,13.944,0,0,1,841.087,729.812Z" transform="translate(-39.914 -153.106)"></path><path class="f" d="M841.087,729.666c0,.8-1.6,2.8-1.6,2.8a19.819,19.819,0,0,1-9.6-1.2c-.8-.4.4-2.8.4-2.8l.092-.193a19.349,19.349,0,0,0,8.717,1.792l1.823-1.823C841.016,728.922,841.087,729.462,841.087,729.666Z" transform="translate(-39.914 -152.96)"></path><circle class="n" cx="9.003" cy="9.003" r="9.003" transform="translate(760.753 417.817)"></circle><path class="n" d="M802.953,600.183c-1.976,1.884-2.3,4.868-2.505,7.587l-.305,3.982a20.1,20.1,0,0,0-.071,3.228c0,.662.163,1.334.224,2.037s.081,1.589.092,2.393V625.3a6.944,6.944,0,0,0,.652,3.534,2.4,2.4,0,0,0,3.055,1.1,3.483,3.483,0,0,0,1.263-1.955,30.4,30.4,0,0,0,2.037-7.455c.081-.886.092-1.772.173-2.658s.234-1.813.367-2.709c.57-3.748.825-7.536,1.079-11.314.071-1.12,1.08-5.53-.387-6.019-.713-.234-2.19.5-2.872.743a8.086,8.086,0,0,0-2.8,1.619Z" transform="translate(-40.458 -155.358)"></path><path class="f" d="M802.953,600.183c-1.976,1.884-2.3,4.868-2.505,7.587l-.305,3.982a20.1,20.1,0,0,0-.071,3.228c0,.662.163,1.334.224,2.037s.081,1.589.092,2.393V625.3a6.944,6.944,0,0,0,.652,3.534,2.4,2.4,0,0,0,3.055,1.1,3.483,3.483,0,0,0,1.263-1.955,30.4,30.4,0,0,0,2.037-7.455c.081-.886.092-1.772.173-2.658s.234-1.813.367-2.709c.57-3.748.825-7.536,1.079-11.314.071-1.12,1.08-5.53-.387-6.019-.713-.234-2.19.5-2.872.743a8.086,8.086,0,0,0-2.8,1.619Z" transform="translate(-40.458 -155.358)"></path><path class="o" d="M821.538,588.16s-6.8,5.2-10.805,6.406c0,0-2.373,2.709-2.78,3.361s-1.222,7.842-2.037,9.451-2.8,5.2,0,8.8c0,0,.794,3.605.4,4.807s-1.853,5.6-.53,5.8,5.336,2.994,8.931,2.2,17.017,3.055,17.017,3.055,2.22-20.622,3.829-24.268l-3.605-1.2s-10-6-4-15.2C827.944,591.368,822.322,590.166,821.538,588.16Z" transform="translate(-40.376 -155.535)"></path><path class="d" d="M796.845,611.877l8.269,5.856a.611.611,0,0,0,.723,0l2.24-1.68a.631.631,0,0,0,0-.957l-6.365-5.652a.611.611,0,0,0-.621-.122l-4.084,1.466a.621.621,0,0,0-.163,1.09Z" transform="translate(-40.521 -155.147)"></path><path class="n" d="M799.589,629.435a22.162,22.162,0,0,1-.866-6.243l-.122-2.821a8.146,8.146,0,0,1,.3-3.259,5.326,5.326,0,0,1,3.432-3,11.853,11.853,0,0,1,4.674-.336,1.2,1.2,0,0,1,.6.163,1.12,1.12,0,0,1,.326.55,3.687,3.687,0,0,1,.183,2.943,3.054,3.054,0,0,1-.937.968c-1.11.794-2.4,1.324-3.452,2.189a1.253,1.253,0,0,0-.469.591,1.376,1.376,0,0,0,0,.642,10.261,10.261,0,0,0,.53,1.64,1.619,1.619,0,0,0,.458.692c.193.163.448.224.652.377.438.356,1.354.825,1.3,1.385-.153,2.037-1.375,4.318-1.853,6.334C803.428,636.186,800.18,631.156,799.589,629.435Z" transform="translate(-40.485 -155.066)"></path><g class="p" transform="translate(771.742 451.638)"><path d="M812.2,628.252h-.224a6.855,6.855,0,0,0,2.617,0h.255a9.167,9.167,0,0,0-2.648,0Z" transform="translate(-811.98 -606.438)"></path><path d="M832.9,606.83c-1.436,3.228-3.554,20.714-3.931,24.187,1.405.367,2.332.631,2.332.631s2.2-20.571,3.809-24.217Z" transform="translate(-811.668 -606.83)"></path></g><path class="n" d="M828.724,601.808a3.055,3.055,0,0,0,1.314,1.986,17.629,17.629,0,0,1,2.332,2.363,16.733,16.733,0,0,1,2.312,4.634,56.766,56.766,0,0,1,1.925,6.334c-5.092,2.363-10.876,2.251-16.294,3.809a13,13,0,0,0-6.11,3.615,8.422,8.422,0,0,0-2.251,6.63.864.864,0,0,0,.122.4.855.855,0,0,0,.713.285,6.11,6.11,0,0,0,3.738-1.283,17.788,17.788,0,0,0,2.862-2.811,4.6,4.6,0,0,1,2.037-1.507c2.943-.9,6.11-.845,9.165-.9a115.5,115.5,0,0,0,13.656-1.08,1.1,1.1,0,0,0,1.222-1.222c.448-6.008-1.782-11.874-4.074-17.445q-1.375-3.35-2.831-6.67a19.757,19.757,0,0,0-3.463-5.927,6.11,6.11,0,0,0-2.037-1.507,8.613,8.613,0,0,0-2.729-.509,19.354,19.354,0,0,0-4.471-.081,9.528,9.528,0,0,0-.428,2.312c.082,2.75,1.283,5.326,2.465,7.811C828.052,601.421,828.489,601.442,828.724,601.808Z" transform="translate(-40.24 -155.486)"></path><path class="q" d="M812.428,606.67a7.465,7.465,0,0,0-1.018,3.89,5.24,5.24,0,0,0,.255,1.589,5.153,5.153,0,0,0,3.249,3.055" transform="translate(-40.249 -155.195)"></path><path class="d" d="M817.833,573.878a4.675,4.675,0,0,0-1.477.234c-1.334-2.037-4.471-3.442-8.147-3.442-4.868,0-8.809,2.515-8.809,5.611s3.941,5.6,8.809,5.6a12.393,12.393,0,0,0,5.285-1.12,4.8,4.8,0,1,0,4.318-6.884Z" transform="translate(-40.47 -155.857)"></path><path class="f" d="M818.23,582.21a4.787,4.787,0,0,1-4.318-2.72,12.394,12.394,0,0,1-5.285,1.121c-4.858,0-8.8-2.505-8.8-5.6a3.372,3.372,0,0,1,0-.56,3.8,3.8,0,0,0-.448,1.762c0,3.055,3.941,5.6,8.809,5.6a12.393,12.393,0,0,0,5.285-1.12,4.8,4.8,0,0,0,9.033-1.191,4.776,4.776,0,0,1-4.277,2.709Z" transform="translate(-40.47 -155.787)"></path><path class="f" d="M798.325,574.213a13.6,13.6,0,0,1,15.276-7.281,14.4,14.4,0,0,1,21.916,11.06v-1.2a14.4,14.4,0,0,0-21.967-12.221,13.6,13.6,0,0,0-15.276,7.281,16.579,16.579,0,0,0-5.184,12.384v1.2A16.294,16.294,0,0,1,798.325,574.213Z" transform="translate(-40.586 -156.008)"></path><path class="j" d="M888.6,578.958c2.658-4.919-.356-10.958-3.829-15.347s-7.689-8.952-7.6-14.553c.122-8.035,8.656-12.781,15.479-17.048a75.262,75.262,0,0,0,13.891-11.2,20.3,20.3,0,0,0,4.277-5.713c1.405-3.147,1.365-6.721,1.283-10.184q-.448-17.211-1.7-34.381" transform="translate(-39.04 -157.698)"></path><path class="g" d="M922.972,470.146a12.516,12.516,0,0,0-6.253-10.265l-2.811,5.55.081-6.721a12.3,12.3,0,0,0-4.124-.5,12.536,12.536,0,1,0,13.107,11.936Z" transform="translate(-38.658 -157.925)"></path><path class="g" d="M901,553.59a12.536,12.536,0,1,1,.6-10.1l-7.831,6.375,8.616-2.037A12.465,12.465,0,0,1,901,553.59Z" transform="translate(-39.037 -156.507)"></path><path class="g" d="M894.727,529.8a12.536,12.536,0,0,1-3.982-24.594l-.061,5.163,2.841-5.611h0a12.54,12.54,0,1,1,1.171,25.052Z" transform="translate(-38.959 -157.069)"></path><path class="g" d="M924.608,509.922a12.536,12.536,0,1,1,5.55-23.423l-2.22,6.11,4.562-4.379a12.465,12.465,0,0,1,4.074,8.656,12.1,12.1,0,0,1-.316,3.452A12.536,12.536,0,0,1,924.608,509.922Z" transform="translate(-38.41 -157.434)"></path><path class="f" d="M921.292,473.362c-2.892.326-5.713,1.222-8.616,1.405s-6.11-.519-7.933-2.78a38.913,38.913,0,0,1-2.312-4.074,9.013,9.013,0,0,0-3.157-2.974,12.536,12.536,0,1,0,23.423,8.32C922.229,473.281,921.761,473.311,921.292,473.362Z" transform="translate(-38.659 -157.801)"></path><path class="f" d="M924.607,509.793a12.547,12.547,0,0,1-11.925-17.883,9.277,9.277,0,0,1,2.526,2.515,40.19,40.19,0,0,0,2.485,4.145c1.945,2.3,5.285,3.055,8.31,2.913s5.947-1.018,8.962-1.273c.417,0,.845-.071,1.263-.081a12.536,12.536,0,0,1-11.62,9.665Z" transform="translate(-38.409 -157.305)"></path><path class="f" d="M894.727,529.669A12.526,12.526,0,0,1,882.7,512a10.335,10.335,0,0,1,2.648,2.546c1.018,1.375,1.578,2.964,2.719,4.226,2.118,2.363,5.672,3.188,8.88,3.116s6.11-.835,9.165-1.069a12.536,12.536,0,0,1-11.385,8.85Z" transform="translate(-38.959 -156.935)"></path><path class="f" d="M901,553.444a12.547,12.547,0,0,1-22.863-10.184,12.281,12.281,0,0,1,2.75,2.454c1.2,1.456,1.986,3.055,3.361,4.461,2.566,2.515,6.7,3.544,10.388,3.646a54.935,54.935,0,0,0,6.365-.377Z" transform="translate(-39.036 -156.361)"></path><path class="r" d="M532.465,588.426a9.99,9.99,0,0,0-3.982-8.066,11.711,11.711,0,0,0-9.787-11.487,11.691,11.691,0,0,0-7.791-8.707h0a9.936,9.936,0,0,0-1.446-.336h-1.721a11.467,11.467,0,0,0-11.08,9.8c-3.575-.825-6.844.244-7.444,2.505a3.055,3.055,0,0,0,.1,1.813c.611,1.752,2.6,3.432,5.255,4.257l.346.1.519.132h.112a9,9,0,0,0-.855,3.86,8.9,8.9,0,0,0,4.8,7.943l-.234.143a3.177,3.177,0,0,0-.774,1.079,16.151,16.151,0,0,0-1.5,3.6c-.255,1.08-.3,2.2-.611,3.269-.591,1.966-2.1,3.625-2.271,5.672-.081.917.071,2.037-.581,2.627A3.166,3.166,0,0,1,493,607a4.205,4.205,0,0,0-1.13,1.191,3.951,3.951,0,0,1-.794,1.141c-.591.438-1.558.4-1.843,1.08s.458,1.487.285,2.23-.8.886-1.263,1.3a4.532,4.532,0,0,0-1.09,2.037,6.681,6.681,0,0,1-5.5-1.405,10.278,10.278,0,0,1,.57,2.037,8.921,8.921,0,0,0-2.964-1.487,9.359,9.359,0,0,1-3.157-2.342l1.691-.234-7.465-11.4-2.21-.458,1.976,3.8a1.211,1.211,0,0,0-.672.8,3.452,3.452,0,0,0-.071,1.293,23.149,23.149,0,0,0,.509,3.055l.57,2.668c.051.244.112.5.183.743a7.018,7.018,0,0,0-2.21.244,19.232,19.232,0,0,0-4.593-1.09,2.546,2.546,0,0,0-1.018,0,2.637,2.637,0,0,0-.967.784,31.321,31.321,0,0,0-3.412,4.807c-4.074,6.986-9.379,13.086-14.4,19.4-3.463,1.405-6.956,2.74-10.449,4.074l-7.516,2.872a11.4,11.4,0,0,1-4.664,1.018c-.713,0-1.6-.153-2.037.458a4.29,4.29,0,0,0-.458,1.018l-.774.081h0a8.9,8.9,0,0,0-1.8-3.32,1.14,1.14,0,0,0-.845.652c-.183.336-.3.7-.509,1.018-.4.591-1.1.876-1.6,1.375s-.815,1.273-1.365,1.782a5.4,5.4,0,0,1-2.556,1.018,16.13,16.13,0,0,0-4,1.517,6.447,6.447,0,0,1-1.477.682,5.547,5.547,0,0,1-1.741.061l-3.972-.3a3.138,3.138,0,0,0-1.069.051,2.037,2.037,0,0,0-1.263,2.037,3.208,3.208,0,0,0,1.263,2.19,8.087,8.087,0,0,0,2.261,1.171,66.353,66.353,0,0,0,10.591,3.137v.8a18.078,18.078,0,0,0,8.147,1.935,1.264,1.264,0,0,0,.611-.112,1.344,1.344,0,0,0,.509-.794,32.762,32.762,0,0,0,1.589-7.8h0a4.072,4.072,0,0,0,1.436-.367c1.365-.377,2.729.56,4.145.713,1.741.193,3.35-.825,5-1.446l.713-.234a7.82,7.82,0,0,1-1.65,1.578c-.682.489-1.446.855-2.108,1.365a14.514,14.514,0,0,1-1.792,1.385,11.251,11.251,0,0,1-1.375.53,9.069,9.069,0,0,0-1.965,1.018,3.981,3.981,0,0,0-1.334,1.3,1.955,1.955,0,0,0-.112,1.833,1.935,1.935,0,0,0,1.314.917,5.39,5.39,0,0,0,1.619,0c2.159-.163,4.308-.356,6.457-.55a17.221,17.221,0,0,0,2.7-.387c.468-.112.937-.265,1.405-.4a12.54,12.54,0,0,1,2.454-.367,2.036,2.036,0,0,1,.713.071c.5.163.855.672,1.365.774a2.037,2.037,0,0,0,1.018-.132,22.713,22.713,0,0,1,4.776-.509,1.971,1.971,0,0,0,1.853-.825c.326-.652-.265-1.7-.53-2.566a7.852,7.852,0,0,1-.224-1.69,10.582,10.582,0,0,0-1.181-4.013,10.473,10.473,0,0,1-.886-1.833,46.312,46.312,0,0,0,8.789-4.461,15.714,15.714,0,0,1,5.01-2.413,13.627,13.627,0,0,1,6.294.733,143.2,143.2,0,0,1,14.431,5.031c2.251.927,4.491,1.9,6.813,2.607a10.624,10.624,0,0,0,2.424,2.352,11.2,11.2,0,0,0,5.245,1.436,68.743,68.743,0,0,0,7.383.275,12.453,12.453,0,0,0,5.5-1.018,5.649,5.649,0,0,0,1.151-.764,4.562,4.562,0,0,0,3.625-1.334,8.789,8.789,0,0,0,2.76-4.359c.6-2.322.143-5.092,1.568-6.945.377-.509.876-.917,1.253-1.426a4.012,4.012,0,0,0,.652-2.352.475.475,0,0,1,.061-.092,8.624,8.624,0,0,0,.611-2.342,13.39,13.39,0,0,1,.662-1.854,57.217,57.217,0,0,0,1.894-5.489,32.067,32.067,0,0,0,.876-3.768c.153-1.018.244-2.037.326-3.055a18.974,18.974,0,0,1,.927-4.715,38.373,38.373,0,0,0,2.139-11.284v-.224a7.567,7.567,0,0,0,6.7-7.7,8.033,8.033,0,0,0-.7-3.289,10.183,10.183,0,0,0,1.365-5.133ZM496.027,632.7c.112.4.244.784.377,1.171-.6-.58-1.181-1.181-1.782-1.772.234.081.479.153.7.244a3.793,3.793,0,0,1,.672.356Zm-2.882-1.955c-3.524-3.055-7.6-5.428-11.2-8.392,1.965.968,3.88,2.1,5.774,3.177q3.371,1.925,6.833,3.7a5.592,5.592,0,0,1-1.436,1.517Zm1.5-7.7.173-.173v1.212l-.947-.326a8.435,8.435,0,0,0,.743-.713Zm-30.99,8.249a29.155,29.155,0,0,0,3.748-5.346c1.4,2.434,3.666,4.2,5.591,6.243C469.885,631.789,466.769,631.453,463.653,631.29Z" transform="translate(-47.888 -156.056)"></path><path class="s" d="M415.35,438.25l2.22.448,7.567,11.192-3.33.448Z" transform="translate(5.425 7.329)"></path><path class="t" d="M414.49,645.462a43.564,43.564,0,0,0,2.22,5.774,54.974,54.974,0,0,0,7.383-2.108,23.273,23.273,0,0,0-1.538-2.037,7.6,7.6,0,0,0-2.088-1.6,5.744,5.744,0,0,0-2.536,0C416.792,645.462,415.641,645.482,414.49,645.462Z" transform="translate(-47.546 -154.484)"></path><path class="s" d="M420.822,648.5a4.6,4.6,0,0,1-2.526-2.872,9.247,9.247,0,0,0-1.925-3.432,1.1,1.1,0,0,0-.855.642c-.183.326-.3.693-.5,1.018-.407.581-1.12.866-1.629,1.354s-.815,1.253-1.365,1.752a5.416,5.416,0,0,1-2.576,1.018,16.71,16.71,0,0,0-4.074,1.5,7.031,7.031,0,0,1-1.5.672,5.929,5.929,0,0,1-1.752,0l-4.012-.285a3.136,3.136,0,0,0-1.018,0,1.945,1.945,0,0,0-1.273,2.037,3.056,3.056,0,0,0,1.273,2.159,8.456,8.456,0,0,0,2.281,1.161,67.122,67.122,0,0,0,10.754,3.055v.794a18.616,18.616,0,0,0,8.2,1.9,1.385,1.385,0,0,0,.611-.1,1.344,1.344,0,0,0,.509-.794,31.774,31.774,0,0,0,1.68-8.717,6.945,6.945,0,0,0-.173-2.251c-.224-.723.53-.418-.163-.7" transform="translate(-47.89 -154.542)"></path><path class="s" d="M497.356,633.6c-11.895.713-23.647-2.77-35.562-3.137a17.362,17.362,0,0,0-4.42.275,22.27,22.27,0,0,0-4.379,1.7c-6.385,2.974-12.995,5.438-19.594,7.893l-7.587,2.821a11.488,11.488,0,0,1-4.695,1.018c-.723,0-1.609-.153-2.037.448-1.232,1.833-.652,4.511.163,6.569.265.662.713,1.385,1.426,1.456a4.144,4.144,0,0,0,1.446-.367c1.375-.367,2.75.56,4.175.713,1.752.183,3.381-.815,5.041-1.426,2.75-1.018,5.744-1.018,8.636-1.466,4.837-.8,9.328-3.055,13.524-5.611a15.784,15.784,0,0,1,5.041-2.383,13.951,13.951,0,0,1,6.345.723,145.61,145.61,0,0,1,14.553,4.949,67.826,67.826,0,0,0,7.6,2.78,27.5,27.5,0,0,0,17.038-1.018c1.9-.754,3.972-2.037,4.074-4.135.071-1.171-.845-2.2-1.446-3.208-.387-.642-.784-1.283-1.2-1.9C503.456,637.335,500.971,633.383,497.356,633.6Z" transform="translate(-47.475 -154.758)"></path><path class="f" d="M497.356,633.6c-11.895.713-23.647-2.77-35.562-3.137a17.362,17.362,0,0,0-4.42.275,22.27,22.27,0,0,0-4.379,1.7c-6.385,2.974-12.995,5.438-19.594,7.893l-7.587,2.821a11.488,11.488,0,0,1-4.695,1.018c-.723,0-1.609-.153-2.037.448-1.232,1.833-.652,4.511.163,6.569.265.662.713,1.385,1.426,1.456a4.144,4.144,0,0,0,1.446-.367c1.375-.367,2.75.56,4.175.713,1.752.183,3.381-.815,5.041-1.426,2.75-1.018,5.744-1.018,8.636-1.466,4.837-.8,9.328-3.055,13.524-5.611a15.784,15.784,0,0,1,5.041-2.383,13.951,13.951,0,0,1,6.345.723,145.61,145.61,0,0,1,14.553,4.949,67.826,67.826,0,0,0,7.6,2.78,27.5,27.5,0,0,0,17.038-1.018c1.9-.754,3.972-2.037,4.074-4.135.071-1.171-.845-2.2-1.446-3.208-.387-.642-.784-1.283-1.2-1.9C503.456,637.335,500.971,633.383,497.356,633.6Z" transform="translate(-47.475 -154.758)"></path><path class="t" d="M436.92,646.089q2.79.947,5.632,1.752c1.018-1.741,3.055-2.953,3.493-4.949a.469.469,0,0,0,0-.265.489.489,0,0,0-.214-.193,10.672,10.672,0,0,0-4.42-1.293c-1.222-.071-1.782,1.2-2.332,2.1C438.865,643.635,437.419,646.283,436.92,646.089Z" transform="translate(-47.134 -154.561)"></path><path class="s" d="M439.812,644.831a4.073,4.073,0,0,1-2.739-1.8c-.255-.458-.54-1.079-1.069-1.018s-.7.611-.815,1.09a30.55,30.55,0,0,1-1.538,5.286,9.919,9.919,0,0,1-3.289,4.328c-.693.479-1.456.835-2.139,1.344a14.689,14.689,0,0,1-1.8,1.365,10.7,10.7,0,0,1-1.385.509,9.6,9.6,0,0,0-1.976,1.018,3.921,3.921,0,0,0-1.354,1.293,1.863,1.863,0,0,0-.1,1.8,1.925,1.925,0,0,0,1.314.9,5.541,5.541,0,0,0,1.64,0c2.169-.153,4.338-.346,6.508-.54a18.784,18.784,0,0,0,2.719-.377l1.416-.387a11.268,11.268,0,0,1,2.475-.367,1.924,1.924,0,0,1,.723.071c.5.163.855.662,1.375.764a2.3,2.3,0,0,0,1.018-.132,22.487,22.487,0,0,1,4.817-.5,2.033,2.033,0,0,0,1.874-.815c.407-.794-.265-1.68-.54-2.536a8.148,8.148,0,0,1-.224-1.66,10.122,10.122,0,0,0-1.191-3.951c-.55-1.018-1.3-2.139-.917-3.218a3.055,3.055,0,0,0,.367-1.11C444.823,644.434,440.81,645.055,439.812,644.831Z" transform="translate(-47.419 -154.545)"></path><path class="t" d="M478.6,614.989a9.288,9.288,0,0,1-4.746-4.7c-.193-.448-.356-.927-.55-1.375a10.45,10.45,0,0,0-2.831-3.941,1.4,1.4,0,0,0-1.018-.438,1.11,1.11,0,0,0-.764.825,3.148,3.148,0,0,0-.081,1.273,22.685,22.685,0,0,0,.509,2.974l.58,2.627a5.766,5.766,0,0,0,.356,1.171,4.073,4.073,0,0,0,.967,1.151c.53.489,1.069.957,1.609,1.426a5.53,5.53,0,0,0,1.018.7,5.917,5.917,0,0,0,1.8.53,15.339,15.339,0,0,1,6.762,2.607s0-1.762,0-1.955a2.587,2.587,0,0,0-.509-1.416,9.033,9.033,0,0,0-3.106-1.456Z" transform="translate(-46.552 -155.234)"></path><path class="f" d="M478.6,614.989a9.288,9.288,0,0,1-4.746-4.7c-.193-.448-.356-.927-.55-1.375a10.45,10.45,0,0,0-2.831-3.941,1.4,1.4,0,0,0-1.018-.438,1.11,1.11,0,0,0-.764.825,3.148,3.148,0,0,0-.081,1.273,22.685,22.685,0,0,0,.509,2.974l.58,2.627a5.766,5.766,0,0,0,.356,1.171,4.073,4.073,0,0,0,.967,1.151c.53.489,1.069.957,1.609,1.426a5.53,5.53,0,0,0,1.018.7,5.917,5.917,0,0,0,1.8.53,15.339,15.339,0,0,1,6.762,2.607s0-1.762,0-1.955a2.587,2.587,0,0,0-.509-1.416,9.033,9.033,0,0,0-3.106-1.456Z" transform="translate(-46.552 -155.234)"></path><ellipse class="s" cx="2.892" cy="2.913" rx="2.892" ry="2.913" transform="translate(453.374 433.827)"></ellipse><path class="s" d="M500.8,590.482a3.126,3.126,0,0,0-2.281.326,3.169,3.169,0,0,0-.784,1.069,15.532,15.532,0,0,0-1.507,3.544c-.255,1.018-.3,2.169-.621,3.218-.591,1.935-2.108,3.575-2.281,5.591-.081.906.071,1.966-.591,2.577a3.744,3.744,0,0,1-.519.377,3.911,3.911,0,0,0-1.141,1.171,3.84,3.84,0,0,1-.8,1.11c-.591.438-1.568.4-1.853,1.018s.458,1.466.285,2.2-.815.876-1.273,1.283a4.45,4.45,0,0,0-1.1,2.037,6.793,6.793,0,0,1-5.54-1.375,17.638,17.638,0,0,1,.866,6.334,2.587,2.587,0,0,1-.509,1.955,35.267,35.267,0,0,1,6.793,1.181,4.685,4.685,0,0,0,2.964,0,4.95,4.95,0,0,0,1.365-1.079c1.222-1.242,2.505-2.6,2.8-4.318a25.373,25.373,0,0,0,.051-2.923,16.477,16.477,0,0,1,.743-3.554,42.294,42.294,0,0,0,1.293-7.312c.132-1.528,1.456-2.75,2.149-4.074,1.3-2.577,2.648-5.255,2.739-8.147C502.084,591.755,501.759,590.583,500.8,590.482Z" transform="translate(-46.327 -155.494)"></path><path class="f" d="M500.8,590.482a3.126,3.126,0,0,0-2.281.326,3.169,3.169,0,0,0-.784,1.069,15.532,15.532,0,0,0-1.507,3.544c-.255,1.018-.3,2.169-.621,3.218-.591,1.935-2.108,3.575-2.281,5.591-.081.906.071,1.966-.591,2.577a3.744,3.744,0,0,1-.519.377,3.911,3.911,0,0,0-1.141,1.171,3.84,3.84,0,0,1-.8,1.11c-.591.438-1.568.4-1.853,1.018s.458,1.466.285,2.2-.815.876-1.273,1.283a4.45,4.45,0,0,0-1.1,2.037,6.793,6.793,0,0,1-5.54-1.375,17.638,17.638,0,0,1,.866,6.334,2.587,2.587,0,0,1-.509,1.955,35.267,35.267,0,0,1,6.793,1.181,4.685,4.685,0,0,0,2.964,0,4.95,4.95,0,0,0,1.365-1.079c1.222-1.242,2.505-2.6,2.8-4.318a25.373,25.373,0,0,0,.051-2.923,16.477,16.477,0,0,1,.743-3.554,42.294,42.294,0,0,0,1.293-7.312c.132-1.528,1.456-2.75,2.149-4.074,1.3-2.577,2.648-5.255,2.739-8.147C502.084,591.755,501.759,590.583,500.8,590.482Z" transform="translate(-46.327 -155.494)"></path><path class="s" d="M498.852,636.442c-2.475-1.181-4.287-3.371-6.294-5.255-3.819-3.595-8.493-6.11-12.516-9.5-2.668-2.23-5.092-4.827-7.974-6.7A19.929,19.929,0,0,0,463.525,612a2.271,2.271,0,0,0-1.018,0,2.342,2.342,0,0,0-.967.764,30.774,30.774,0,0,0-3.452,4.736c-5.092,8.656-12.333,15.928-18.331,23.973a1.528,1.528,0,0,0-.3.57,1.416,1.416,0,0,0,.224.886l1.222,2.383c.682,1.344,1.782,2.9,3.249,2.638a3.554,3.554,0,0,0,1.7-1.09l5.479-5.245,5.744-5.489c3.361-3.208,6.782-6.5,8.982-10.612,1.711,2.974,4.756,4.919,6.833,7.638.794,1.018,1.446,2.169,2.159,3.269,1.13,1.752,2.424,3.4,3.707,5.092l6.589,8.4a12.607,12.607,0,0,0,3.055,3.055,11.661,11.661,0,0,0,5.285,1.415,69.815,69.815,0,0,0,7.444.265,12.834,12.834,0,0,0,5.55-1.019,5.031,5.031,0,0,0,3-4.471,6.558,6.558,0,0,0-.947-2.78C506.358,642.135,503.282,638.55,498.852,636.442Z" transform="translate(-47.087 -155.098)"></path><ellipse class="u" cx="2.23" cy="2.24" rx="2.23" ry="2.24" transform="translate(455.818 436.515)"></ellipse><path class="t" d="M503.525,592.656a4.287,4.287,0,0,1,.244,3.218,13.054,13.054,0,0,1-1.436,2.964,14.107,14.107,0,0,1-1.864,2.648c3.442.163,6.772-1.181,9.8-2.811,2.444-1.314,4.878-2.933,6.182-5.387a2.851,2.851,0,0,1-2.281-.428,8.149,8.149,0,0,1-1.742-1.619l-1.721-1.935a7.748,7.748,0,0,1-1.018-1.4,3.85,3.85,0,0,1-.458-2.251,13.11,13.11,0,0,1-2.281,1.894c-1.232.8-2.587,1.385-3.829,2.179-.428.285-1.405.733-1.151,1.3S503.179,592.045,503.525,592.656Z" transform="translate(-45.966 -155.581)"></path><path class="f" d="M503.525,592.656a4.287,4.287,0,0,1,.244,3.218,13.054,13.054,0,0,1-1.436,2.964,14.107,14.107,0,0,1-1.864,2.648c3.442.163,6.772-1.181,9.8-2.811,2.444-1.314,4.878-2.933,6.182-5.387a2.851,2.851,0,0,1-2.281-.428,8.149,8.149,0,0,1-1.742-1.619l-1.721-1.935a7.748,7.748,0,0,1-1.018-1.4,3.85,3.85,0,0,1-.458-2.251,13.11,13.11,0,0,1-2.281,1.894c-1.232.8-2.587,1.385-3.829,2.179-.428.285-1.405.733-1.151,1.3S503.179,592.045,503.525,592.656Z" transform="translate(-45.966 -155.581)"></path><path class="u" d="M503.755,592.866a2.9,2.9,0,0,0,0,3.361c.1.122.468.886.621.9a.56.56,0,0,0,.387-.2,25.55,25.55,0,0,0,2.179-2.6,4.848,4.848,0,0,1,2.77-1.813,5.988,5.988,0,0,1,3.819,1.191,3.626,3.626,0,0,1,1.314,1.018,3.554,3.554,0,0,1,.428,1.456,70.159,70.159,0,0,1,.387,9.257,36.477,36.477,0,0,1-.438,6.67c-.224,1.13-.55,2.24-.7,3.391a21.632,21.632,0,0,0-.143,3.055v4.257a11.2,11.2,0,0,0,.163,2.332c.2.927.642,1.792.937,2.7a17.65,17.65,0,0,1,.621,3.188l.581,4.4c.183,1.385.326,2.9-.519,4.074-.377.5-.876.906-1.263,1.405-1.436,1.874-1.018,4.552-1.578,6.844a8.534,8.534,0,0,1-2.79,4.277,4.613,4.613,0,0,1-3.676,1.314c-1.792-.336-2.862-2.2-3.35-3.962s-.662-3.676-1.721-5.163a13.7,13.7,0,0,0-3.4-2.841,5.876,5.876,0,0,1-2.658-3.452c-.112-.642,0-1.3-.112-1.955a4.613,4.613,0,0,0-2.841-3.738c-.917-.356-2.037-.489-2.566-1.324a6.181,6.181,0,0,0,2.678-3.595,18.463,18.463,0,0,0,.652-4.542l.306-5.092c.143-2.291.2-4.552,1.212-6.609.448-.917,1.018-1.782,1.477-2.689a29.185,29.185,0,0,0,1.578-3.941c.733-2.1,1.466-4.2,2.118-6.314a11.9,11.9,0,0,1,1.161-2.943C501.932,594.221,502.726,593.07,503.755,592.866Z" transform="translate(-46.154 -155.455)"></path><path class="s" d="M492.363,626.123h1.354l.285-2.037a4.244,4.244,0,0,1,.285-1.191,7.131,7.131,0,0,1,.784-1.141c1.324-1.884,1.232-4.379,1.558-6.67a33.941,33.941,0,0,1,2.974-8.717l2.627-5.856a8.084,8.084,0,0,0,.57-1.5,8.978,8.978,0,0,0,.163-1.731c0-.906.285-4.206.316-5.092,0-.336-.743-.153-.9-.448-.326-.652-.774,1.11-1.4,1.5a3.422,3.422,0,0,0-1.212,1.772c-.57,1.466-.917,3.055-1.446,4.511a9.216,9.216,0,0,1-2.454,3.992c-.54.469-1.161.845-1.67,1.354-1.629,1.609-1.792,4.165-1.843,6.467C492.322,612.742,492.057,626.123,492.363,626.123Z" transform="translate(-46.117 -155.472)"></path><path class="s" d="M511.723,590.472a4.623,4.623,0,0,0-2.414,3.31,16.74,16.74,0,0,1-1.222,4.073c-1.65,2.872-5.856,3.707-7.027,6.813a12.527,12.527,0,0,0-.468,3.208c-.2,2.23-.937,4.379-1.161,6.6a29.405,29.405,0,0,0,.122,5.184L501.03,637.2a23.423,23.423,0,0,1-.438,7.719,7.434,7.434,0,0,0,4.42-.733c1.375-.631,2.638-1.5,3.972-2.23,2.281-1.263,4.807-2.149,6.813-3.829a4.165,4.165,0,0,0,.917-1.018,8.805,8.805,0,0,0,.611-2.3,12.426,12.426,0,0,1,.662-1.813,53.409,53.409,0,0,0,1.915-5.418,31.112,31.112,0,0,0,.876-3.707c.163-1.018.255-2.037.336-3.055a17.919,17.919,0,0,1,.937-4.634,37.324,37.324,0,0,0,2.149-11.121,5.812,5.812,0,0,0-.112-1.629,8.72,8.72,0,0,0-.9-1.864c-.611-1.151-1.018-2.414-1.548-3.585a17.628,17.628,0,0,0-6.019-6.324C514.442,590.849,513.057,589.994,511.723,590.472Z" transform="translate(-45.986 -155.495)"></path><path class="t" d="M481.578,618.677a10.62,10.62,0,0,1-2.8-2.128c-.367-.428-.672-.906-1.018-1.334a6.936,6.936,0,0,0-3.524-2.037,17.214,17.214,0,0,0-4.073-.4,7.392,7.392,0,0,0-2.719.326,2.77,2.77,0,0,0-1.8,1.935,3.208,3.208,0,0,0,1.375,2.851,6.478,6.478,0,0,0,2.74,1.324,21.9,21.9,0,0,0,2.475.3c4.868.509,9.216,3.157,13.483,5.571q5.621,3.2,11.467,5.947a23.831,23.831,0,0,0,.194-3.513c0-.876-.071-2.22-.9-2.74a17.988,17.988,0,0,0-3.646-1.09,57.383,57.383,0,0,1-7.343-2.974A36.538,36.538,0,0,1,481.578,618.677Z" transform="translate(-46.606 -155.083)"></path><ellipse class="t" cx="8.677" cy="8.728" rx="8.677" ry="8.728" transform="translate(447.589 418.622)"></ellipse><path class="s" d="M514.316,600.2a13.91,13.91,0,0,0-1.68,3.147c-1.018,2.2-2.75,4.074-3.595,6.406s-.855,5.326-2.6,7.231a2.535,2.535,0,0,0-.764,1.1,5.258,5.258,0,0,1-.081.794c-.255.693-1.385.723-1.6,1.436-.061.2,0,.428-.1.631-.173.458-.784.53-1.181.8-.845.57-.672,1.894-1.273,2.719a2.291,2.291,0,0,1-2.169.764,7.64,7.64,0,0,1-2.251-.845,2.171,2.171,0,0,0-.815-.255,1.68,1.68,0,0,0-.937.326,5.774,5.774,0,0,0-2.342,4.939,16.131,16.131,0,0,0,1.344,5.53,2.22,2.22,0,0,0,.438.825,1.945,1.945,0,0,0,2.159.163,10.185,10.185,0,0,1,2.108-.947c1.344-.244,2.658.682,4.023.6a5.591,5.591,0,0,0,2.709-1.191,14.97,14.97,0,0,0,3.646-3.055c.591-.784,1.018-1.67,1.548-2.505a32.129,32.129,0,0,1,2.19-2.923l5.01-6.11a14.082,14.082,0,0,0,1.344-1.853,13.068,13.068,0,0,0,1.018-2.8,21.456,21.456,0,0,0,1.018-4.98,19.139,19.139,0,0,0-.367-4.175,14.757,14.757,0,0,0-1.018-3.982C519.011,599.691,516.363,597.817,514.316,600.2Z" transform="translate(-46.104 -155.334)"></path><path class="v" d="M531.839,589.511a9.776,9.776,0,0,0-4.012-7.943,11.62,11.62,0,0,0-9.868-11.314,11.274,11.274,0,0,0-22.211.6c-3.605-.815-6.9.244-7.505,2.464s1.945,5.092,5.744,6.11a10.7,10.7,0,0,0,3.687.367,11.284,11.284,0,0,0,7.76,4.837,11.579,11.579,0,0,0,8.473,8.738,9.725,9.725,0,0,0,2.617,3.615v.845a7.343,7.343,0,1,0,14.685,0,7.841,7.841,0,0,0-.7-3.249A9.817,9.817,0,0,0,531.839,589.511Z" transform="translate(-46.192 -156.031)"></path><path class="f" d="M490.686,573.787c.6-2.22,3.9-3.279,7.506-2.464a11.467,11.467,0,0,1,11.2-9.654h.743a11.037,11.037,0,0,0-3.2-.479,11.467,11.467,0,0,0-11.2,9.654c-3.605-.815-6.9.244-7.506,2.464s1.945,5.092,5.744,6.11a11.2,11.2,0,0,0,2.179.377C492.519,578.706,490.085,576.058,490.686,573.787Z" transform="translate(-46.192 -156.031)"></path><path class="f" d="M518.75,597.917a7.638,7.638,0,0,1,0-.835,9.51,9.51,0,0,1-2.617-3.615,11.549,11.549,0,0,1-8.473-8.748,11.253,11.253,0,0,1-7.77-4.827,9.775,9.775,0,0,1-2.169-.061,11.314,11.314,0,0,0,7.485,4.45,11.579,11.579,0,0,0,8.473,8.738,9.725,9.725,0,0,0,2.617,3.615v.845a7.475,7.475,0,0,0,7.3,7.6A7.6,7.6,0,0,1,518.75,597.917Z" transform="translate(-46.016 -155.688)"></path><ellipse class="t" cx="1.334" cy="1.782" rx="1.334" ry="1.782" transform="translate(457.029 428.521) rotate(-37.22)"></ellipse></g></g></svg>